<svg id="_1" data-name="1" xmlns="http://www.w3.org/2000/svg" xmlns:xlink="http://www.w3.org/1999/xlink" width="491.545" height="478.996" viewBox="0 0 491.545 478.996">
  <defs>
    <linearGradient id="linear-gradient" x1="0.5" x2="0.5" y2="1" gradientUnits="objectBoundingBox">
      <stop offset="0" stop-color="#ffb368"/>
      <stop offset="1" stop-color="#fc6861"/>
    </linearGradient>
  </defs>
  <g id="cash_collection_fill" data-name="cash collection fill">
    <path id="Path_12318" data-name="Path 12318" d="M582.543,781.32c-14.983-1.322-30.051-2.072-44.927-4.162-10.562-1.481-20.933-4.55-31.273-7.338-5.215-1.407-5.628-4.037-1.6-7.5,15.2-13.059,25.036-29.445,30.55-48.59,3.387-11.766,5.012-23.854,3.18-35.871a114.225,114.225,0,0,0-11.042-34.265c-6.666-13.269-16.069-23.817-27.451-32.74a89.879,89.879,0,0,0-48.3-19.008c-8.753-.805-17.262-.255-25.9.247-6.393.373-7.549-1.038-5.2-7.15,3.922-10.2,8.018-20.364,12.752-30.2a196.054,196.054,0,0,1,22.879-37.212c10.123-12.741,21.106-24.585,33.748-34.885,3.095-2.519,6.422-3.017,10.2-3.014q79.251.094,158.5.044a25.411,25.411,0,0,0,4.11-.055c7.8-1.289,13.761,2.208,19.023,7.323,10.492,10.193,21.121,20.331,29.482,32.4,7.4,10.684,15.363,21.243,20.922,32.887,10.307,21.583,18.839,43.845,21.653,68.1,1.322,11.4,2.951,22.75,1.913,34.08-1.883,20.549-6.16,40.443-17.612,58.362-12.786,20.013-29.866,34.833-50.769,45.64-15.518,8.025-32.045,12.893-49.019,16.756C619.966,779.359,601.375,780.522,582.543,781.32ZM616.132,588.5c-.118-12.6-8.627-24.234-20.4-27.927-5.037-1.581-5.68-2.393-5.846-7.708-.07-2.282.151-4.587-.052-6.854-.329-3.645-3.324-6.947-6.26-7.209-2.906-.258-5.462,1.872-6.393,5.927a38.573,38.573,0,0,0-.783,8.129c-.041,3.3-1.016,5.348-4.443,6.733-13.923,5.632-21.723,15.36-22.244,31.192-.377,11.445,4.166,19.592,12.221,26.723,5.957,5.274,12.956,7.305,20.722,7.7,11.116.565,19.862,8.339,20.87,18.24,1.559,15.312-14.976,26.808-29.442,20.449-7.77-3.42-10.887-9.872-11.633-17.9-.384-4.122-3.424-7.01-6.976-6.88-3.339.122-6.577,3.8-6.278,7.708.606,7.881,2.545,15.249,8.542,21.058,3.815,3.693,7.693,7.117,12.852,8.812,3.907,1.281,5.931,4.055,6.09,8.188a60.012,60.012,0,0,0,.4,6.733c.646,4.247,2.618,6.179,5.953,6.2,3.442.018,6.212-2.537,6.688-6.522a67.376,67.376,0,0,0,.233-7.534c.022-3.63,1.481-5.614,5.248-6.81,10.632-3.379,17.1-11.2,19.991-21.675,1.182-4.291,1.06-9.059.875-13.587-.491-12.073-7.294-20.15-17.243-26.11-5.769-3.457-12.409-2.618-18.6-3.966-7.094-1.54-12.5-4.831-15.615-11.807-4.661-10.466-.938-21.479,9.4-26.5a20.2,20.2,0,0,1,27.011,8.675,26.791,26.791,0,0,1,2.866,10.4c.281,3.575,3.265,5.569,6.744,5.3,3.383-.258,5.141-2.061,5.492-5.739.107-1.134.018-2.282.018-3.427Z" transform="translate(-264.554 -302.323)" fill="url(#linear-gradient)"/>
    <path id="Path_12319" data-name="Path 12319" d="M334.972,985.783c-49.554.883-83.756-38.708-85.632-79.524-2.3-50.182,38.176-87.18,81.806-88.472,48.435-1.433,87.08,38.745,86.718,84.214a83.862,83.862,0,0,1-82.892,83.778Zm23.976-105.394c-.007-7.811-4.742-15.434-13.395-19.95-4.033-2.105-5.669-4.6-5.735-9.015-.074-4.879-2.5-7.394-6.186-7.442-3.948-.052-6.186,2.131-6.2,7.131-.015,4.192-1.522,6.973-5.263,8.731a26.574,26.574,0,0,0-3.446,2.227c-17.254,11.715-13.111,37.655,3.756,43.313,4.077,1.37,8.343,2.186,12.509,3.291,5.968,1.584,11.164,7.438,11.131,12.5-.033,5.721-4.605,11.212-10.474,11.748-6.116.558-12.106-1.566-13.731-8.487a37.091,37.091,0,0,0-1.817-5.857,6.364,6.364,0,0,0-7.069-4.229c-2.877.336-4.528,2.7-4.871,6.5a22.745,22.745,0,0,0,13.306,22.524c3.944,1.81,6.4,4.266,5.894,8.9a17.5,17.5,0,0,0,.14,2.733c.174,3.527,2.729,4.465,5.547,5,2.936.558,4.893-.979,5.979-3.464a12.631,12.631,0,0,0,.868-4.661,8.307,8.307,0,0,1,4.727-7.722,41.564,41.564,0,0,0,5.13-3.4c11.582-8.586,11.7-25.335,5.407-33.792-5.259-7.065-12.121-11.53-21.272-12.062-7.822-.454-11.729-4.262-12.147-11.2a12.722,12.722,0,0,1,9.58-13.188c5.647-1.3,11.478,2.449,14,9.126.639,1.7.849,3.549,1.444,5.266a5.955,5.955,0,0,0,6.891,4.284c3.021-.495,4.986-2.183,5.277-5.385.1-1.134.015-2.282.015-3.427Z" transform="translate(-157.199 -515.746)" fill="url(#linear-gradient)"/>
    <path id="Path_12320" data-name="Path 12320" d="M737.213.036c17.827,0,35.653-.089,53.48.03,14.37.1,23.381,12.793,18.613,26.483-2.393,6.88-5.447,13.55-8.505,20.176-7.246,15.7-14.85,31.236-21.911,47.013-2.172,4.853-4.834,6.781-10.289,6.7-20.792-.325-41.6-.233-62.392-.07-5.078.041-7.874-2.028-9.923-6.589-9.24-20.56-18.757-41-28.142-61.494a49.432,49.432,0,0,1-2.792-6.991c-2.618-9.207,2.253-20.231,11-24.212,2.36-1.075,5.355-1,8.062-1.016,17.6-.081,35.2-.041,52.8-.041V.036Z" transform="translate(-419.186 -0.004)" fill="url(#linear-gradient)"/>
    <path id="Path_12321" data-name="Path 12321" d="M678.007,356.38c-27.218,0-54.437-.044-81.655.018-14.536.033-24.515-7.914-27.144-21.867-2.028-10.769,5.913-23.813,16.578-26.7a52.567,52.567,0,0,1,13.38-2.286q79.6-.188,159.2.018c10.559.018,19.164,4.147,24.138,13.809a24.733,24.733,0,0,1-.329,24.175c-4.927,8.867-12.741,13-23.193,12.893-26.989-.27-53.979-.089-80.972-.089v.033Z" transform="translate(-358.795 -192.654)" fill="url(#linear-gradient)"/>
    <path id="Path_12322" data-name="Path 12322" d="M188.739,638.062c-1.784,2.5-3.2,5.111-5.2,7.157-9.584,9.805-19.319,19.463-29.009,29.165q-33.426,33.465-66.853,66.93c-8.461,8.479-10.913,8.476-19.662-.066-3.431-3.35-7.01-6.544-10.433-9.9-6.548-6.419-6.651-11.138-.236-17.535,21.184-21.125,42.482-42.139,63.618-63.311,11.423-11.445,22.654-23.086,33.884-34.723,5.255-5.444,8.923-6.023,14.617-.953a206.66,206.66,0,0,1,15.478,15.522c1.725,1.9,2.393,4.768,3.793,7.719Z" transform="translate(-33.18 -385.564)" fill="url(#linear-gradient)"/>
    <path id="Path_12323" data-name="Path 12323" d="M122.184,1202.8a38.413,38.413,0,0,1-5.843,1.067c-14.359.151-28.714.266-43.073.236-4.092-.007-8.18-.731-12.272-.753-15.77-.092-31.536-.041-47.305-.033-10.806,0-13.605-2.844-13.635-13.9-.011-5.255-.111-10.514.011-15.77.181-7.9,3.73-10.873,11.53-10.813,21.708.17,43.416.1,65.128.118a21.6,21.6,0,0,0,3.424-.044c6.577-1.067,10.448,1.906,13.517,7.63a77.021,77.021,0,0,0,23.488,26.343,36.1,36.1,0,0,1,3.693,3c.439.414.561,1.171,1.333,2.914Z" transform="translate(-0.008 -733.302)" fill="url(#linear-gradient)"/>
    <path id="Path_12324" data-name="Path 12324" d="M30.8,1018.539q19.843,0,39.69,0c8.036.011,7.641.059,8.151,8.228.569,9.078,1.891,18.111,3.01,27.148.624,5.019.026,5.68-4.683,5.433q-9.229-.482-18.48-.506c-15.548-.063-31.1.011-46.644-.007-8.609-.011-11.622-2.906-11.755-11.371-.092-5.942-.111-11.892-.011-17.834.133-7.648,3.313-10.917,10.832-11.061,6.629-.129,13.262-.026,19.891-.03Z" transform="translate(-0.008 -642.359)" fill="url(#linear-gradient)"/>
    <path id="Path_12325" data-name="Path 12325" d="M622.244,159.23c-6.659,1.311-11.024-2.116-14.51-8.583-4.628-8.583-10.4-16.541-15.378-24.951-3.265-5.514-5.529-11.253-3.756-18.122,1.581-6.134,5.47-9.861,10.64-12.523,4.868-2.508,6.134-1.994,8.612,2.807,2.818,5.455,5.558,10.957,8.106,16.538q8.509,18.641,16.771,37.393c2.415,5.477,1.525,6.917-4.229,7.416C626.691,159.363,624.855,159.23,622.244,159.23Z" transform="translate(-370.834 -59.015)" fill="url(#linear-gradient)"/>
    <path id="Path_12326" data-name="Path 12326" d="M1022.595,159.227c-2.057,0-4.125.144-6.167-.03-4.576-.391-5.547-1.968-3.6-6.323,4.738-10.614,9.672-21.139,14.462-31.731,3.195-7.065,6.308-14.167,9.406-21.276,2.681-6.156,5.1-8.83,12.619-3.438,8.018,5.746,12.121,14.769,5.813,25.9-6.175,10.9-12.834,21.527-19.26,32.285-1.928,3.224-4.6,4.96-8.472,4.668-1.592-.118-3.2-.018-4.8-.018v-.033Z" transform="translate(-638.18 -58.986)" fill="url(#linear-gradient)"/>
  </g>
</svg>
