<svg id="_2" data-name="2" xmlns="http://www.w3.org/2000/svg" width="616.341" height="593.169" viewBox="0 0 616.341 593.169">
  <g id="cash_collection" data-name="cash collection">
    <path id="Path_12327" data-name="Path 12327" d="M164.822,927.888a8.585,8.585,0,0,0-1.1-1.781q-15.639-14.495-31.362-28.9a5.6,5.6,0,0,0-3.416-1.447q-55.364-.106-110.727-.046c-2.932,0-3.745.8-3.753,3.7q-.031,12.305,0,24.606c.008,2.94,1.043,3.962,4.079,3.979,5.768.033,11.54-.025,17.308.012,3.945.025,6.36,1.823,7.444,5.405,1.2,3.962-1.693,8.741-5.835,8.854-7.845.217-15.723.354-23.543-.15-6.644-.43-12.837-7.215-13.629-13.867a31.326,31.326,0,0,1-.229-3.532C.037,916.032.208,907.34,0,898.657a17.322,17.322,0,0,1,17.829-17.641c4.091.2,8.2,0,12.3.058,1.743.025,2.411-.517,2.394-2.415-.092-9.242-.058-18.488.017-27.734.017-1.8-.738-2.29-2.369-2.269-4.171.058-8.341.033-12.512.017C9.645,848.644,4.04,844.929,1.1,837.48A16.318,16.318,0,0,1,.1,831.791c-.1-9.175.017-18.35-.067-27.525-.083-9.655,8.224-17.141,17.57-17.062,12.37.108,24.744.029,37.118.013.934,0,1.873-.138,3.478-.267-1.877-1.881-3.361-3.266-4.725-4.763-2.832-3.111-6.06-5.989-8.3-9.492a15.323,15.323,0,0,1,2.273-19.33q17.723-18,35.6-35.854,36.609-36.784,73.234-73.551,7.05-7.082,14.109-14.163c7.036-7.073,16.686-7.323,23.968-.417,5.434,5.155,10.656,10.531,15.977,15.8.634.63,1.3,1.23,2.31,2.189,1.41-2.169,2.7-4.158,4-6.143,4.667-7.132,9.288-14.3,14.025-21.382,2.31-3.457,5.559-4.379,9.242-2.924,2.823,1.118,4.93,4.55,4.166,7.607a17.139,17.139,0,0,1-2.686,5.317C230.908,645.119,221,660.754,212.854,677.4c-5.572,11.381-10.643,23.013-15.656,34.653-2.106,4.888-3.541,10.072-5.188,15.147-.809,2.49-.421,2.94,2.119,2.448,7.707-1.5,15.406-3.049,23.3-3.14a107.249,107.249,0,0,1,53.637,12.828A108.277,108.277,0,0,1,308,771.949a102.271,102.271,0,0,1,13.583,25.874,107.815,107.815,0,0,1,5.83,47.369,109.094,109.094,0,0,1-9.238,34.2,106.627,106.627,0,0,1-31.959,40.375,16.138,16.138,0,0,1-2.181,1.23c.2.292.4.58.6.872,2.54.855,5.059,1.777,7.62,2.557a282.439,282.439,0,0,0,34.857,8.124c30.937,5.267,62.095,6.01,93.315,4.2,12.32-.713,24.577-2.623,36.834-4.208a211.31,211.31,0,0,0,34.891-7.9c24.652-7.565,47.473-18.6,66.649-36.254a120.012,120.012,0,0,0,28.551-39.007c2.565-5.672,4.759-11.523,6.877-17.383a7.366,7.366,0,0,1,9.655-4.779c3.674,1.214,5.689,5.905,4.312,10.051a151.851,151.851,0,0,1-15.823,34.04,145.356,145.356,0,0,1-41.518,42.335,173.015,173.015,0,0,1-37.61,19.4c-9.809,3.607-19.877,6.585-29.974,9.308-17.487,4.713-35.4,7.1-53.42,8.521a420.888,420.888,0,0,1-66.653.4c-10.038-.8-20.127-1.435-30.057-2.994-11.573-1.818-23.038-4.4-34.478-6.965-10.848-2.427-21.278-6.26-31.554-10.464a12.689,12.689,0,0,1-4.9-3.332,6.731,6.731,0,0,1,1.885-10.264,109.653,109.653,0,0,0,20.59-15.1,94.571,94.571,0,0,0,23.705-36.943,93.1,93.1,0,0,0,4.617-41.071,89.582,89.582,0,0,0-11.661-35.754A93.532,93.532,0,0,0,205.034,742.3a91.844,91.844,0,0,0-29.919,10.418A93.63,93.63,0,0,0,130.261,809a91.127,91.127,0,0,0-3.32,32.167,93.246,93.246,0,0,0,5.743,26.141,92.13,92.13,0,0,0,26.533,37.922A93.194,93.194,0,0,0,185.4,921.111a95.881,95.881,0,0,0,32.038,6.731,15.73,15.73,0,0,1,6.414,1.372c2.986,1.551,3.966,5.026,3.007,8.316a7.219,7.219,0,0,1-7.019,4.871q-24.6.056-49.2.067-50.878,0-101.761-.075a11.473,11.473,0,0,1-5.664-1.464c-2.7-1.626-3.524-4.446-2.719-7.482a6.484,6.484,0,0,1,5.593-5.2,52.043,52.043,0,0,1,6.656-.263q45.148,0,90.292.037c.475,0,.947-.071,1.823-.138Zm20.206-224.645c-.1-.092-.2-.188-.3-.279a17.826,17.826,0,0,0-1.827,1.406c-5.705,5.672-11.356,11.4-17.091,17.045a7.252,7.252,0,0,1-8.629,1.176c-4.563-2.811-5.021-7.916-.98-11.982q23.378-23.553,46.793-47.06c2.106-2.119,2.131-2.965.075-5.026q-8.814-8.839-17.687-17.62c-2.452-2.423-3.291-2.386-5.668,0Q146.493,674.3,113.279,707.7q-26.887,27.025-53.787,54.037c-2.523,2.536-2.552,3.245-.033,5.826,2.473,2.536,5,5.017,7.519,7.515,3.4,3.382,6.781,6.785,10.226,10.122,1.943,1.881,2.869,1.873,4.533.2q17.673-17.76,35.345-35.529c4.4-4.417,8.8-8.85,13.346-13.112,2.3-2.152,5.146-2.315,7.949-.872a6.669,6.669,0,0,1,3.741,6.051c.113,2.652-1.155,4.608-2.94,6.4q-18.029,18.092-36.021,36.229c-.613.617-1.18,1.272-2.1,2.273a18.734,18.734,0,0,0,2.423.38c5.91.013,11.815-.046,17.725,0a2.942,2.942,0,0,0,2.9-1.914,107.225,107.225,0,0,1,46.547-46.614,8.78,8.78,0,0,0,5.025-6.427c1.606-6.239,3.641-12.374,5.609-18.517,1.134-3.537,2.49-7.006,3.745-10.506ZM66.264,801.922v.008H18.116c-2.786,0-3.645.826-3.649,3.591q-.025,12.3-.008,24.6c0,3.053,1.072,4.133,4.15,4.133q45.342.013,90.68.037c2.027,0,2.644-.776,2.711-2.686a98.319,98.319,0,0,1,4.417-27.459c.5-1.535.079-2.26-1.581-2.206-.972.033-1.943-.021-2.919-.021H66.264Zm55.885,78.844c-.342-1.055-.492-1.735-.772-2.348a108.854,108.854,0,0,1-8.053-27.033c-.354-2.089-1.184-2.736-3.249-2.728-19.8.063-39.6.029-59.4.042-2.828,0-3.762.959-3.766,3.758q-.019,12.192-.025,24.385c0,3.491.638,4.166,4.133,4.171q34.282.025,68.568,0c.73,0,1.464-.138,2.561-.246Z" transform="translate(0.002 -359.246)" fill="#ffb5b2"/>
    <path id="Path_12328" data-name="Path 12328" d="M628.216,206.978c-2.39-1.923-4.767-3.6-6.869-5.568a32.47,32.47,0,0,1-10.739-22.938c-.221-5.055-.329-10.109,1.059-15.11a34.172,34.172,0,0,1,15.648-20.707c6.685-4.087,14.084-5.267,21.8-4.967,1.472.058,2.953.008,4.425.008.083-.234.167-.463.25-.7-1.627-2.7-3.232-5.418-4.884-8.1-7.357-11.986-14.772-23.943-22.07-35.967a84,84,0,0,1-6.443-11.819,28.931,28.931,0,0,1,8.028-32.434,28.7,28.7,0,0,1,19.351-7.515c1.6-.013,3.2-.121,4.8-.017,1.935.125,2.181-.7,1.848-2.394a51.108,51.108,0,0,1-1.28-8.616A29.543,29.543,0,0,1,673.524,1.521,31.559,31.559,0,0,1,682.733.049Q747.274-.076,811.811.02C822.775.02,831.437,4.5,837.53,13.6c5.088,7.6,6.139,15.927,3.653,24.7-.7,2.461-.492,2.9,2.014,2.832,5.53-.158,10.96.154,16.094,2.544a29.631,29.631,0,0,1,15.343,15.677c2.8,6.569,3.462,13.371,1.122,20.135a56.4,56.4,0,0,1-5.238,10.568c-7.707,12.753-15.573,25.407-23.388,38.1-1.489,2.419-3.024,4.813-4.492,7.244a9.188,9.188,0,0,0-.621,1.7,7.937,7.937,0,0,0,1.86.6c4.633.325,9.375.063,13.884.98,11.682,2.386,19.964,9.346,24.552,20.356,3.929,9.421,3.762,19.193.788,28.768-2.285,7.365-7.144,13.07-13.583,17.374-.734.488-1.4,1.076-2.227,1.718,3.854,4.533,7.607,8.879,11.285,13.283a574.241,574.241,0,0,1,38.865,51.94,439.9,439.9,0,0,1,25.674,43.953,312.172,312.172,0,0,1,15.606,36.254,238.359,238.359,0,0,1,9.417,33.848,159.459,159.459,0,0,1,3.22,31.888c-.029,4.045-1.405,6.323-4.6,7.595a6.994,6.994,0,0,1-9.7-5.96c-.329-3.945-.4-7.911-.68-11.861a182.45,182.45,0,0,0-7.64-39.582,282.573,282.573,0,0,0-19.948-48.582,433.88,433.88,0,0,0-28.618-47.523,629.849,629.849,0,0,0-44.149-56.273,12.96,12.96,0,0,0-10.96-4.934q-99.26.256-198.521.092a5,5,0,0,0-4.158,1.848c-6.46,7.532-12.908,15.072-19.514,22.475a12.566,12.566,0,0,1-5.138,3.57c-3.086,1.005-5.743-.346-7.478-3.1-1.631-2.594-1.739-5.4.171-7.791,4.287-5.355,8.791-10.539,13.221-15.781,1.468-1.739,2.974-3.445,4.563-5.276Zm70.807-69.66c-.208-.609-.275-.88-.388-1.126q-7.444-16.259-14.9-32.509c-1.71-3.716-.279-8.3,3.124-9.855a7.277,7.277,0,0,1,10.068,3.728c5.768,12.6,11.594,25.173,17.287,37.81a3.391,3.391,0,0,0,3.608,2.356c8.9-.058,17.8,0,26.691,0,10.981,0,21.966-.017,32.947.013,1.451,0,2.544-.325,3.195-1.768,2.044-4.55,4.15-9.075,6.218-13.613Q793.6,107.6,800.312,92.843c3.862-8.445,7.761-16.874,11.627-25.319,4.5-9.83,8.9-19.7,13.508-29.481,2.753-5.843,3.115-11.44-.717-16.928-3.37-4.825-8.12-6.485-13.859-6.477q-63.39.094-126.784.046a31.835,31.835,0,0,0-4.367.259c-5.046.7-10.176,5.568-11.677,10.443-1.518,4.938-.117,9.246,1.948,13.617q5.993,12.687,11.748,25.482a7.2,7.2,0,0,1-.442,7.369,7.006,7.006,0,0,1-7.223,3.136c-2.974-.455-4.675-2.506-5.843-5.092-1.793-3.979-3.5-8-5.422-11.919a3.84,3.84,0,0,0-2.486-2.052,110.386,110.386,0,0,0-13.75.083,14.974,14.974,0,0,0-11.385,22.6c5.1,8.5,10.305,16.928,15.485,25.378,6.56,10.693,13.166,21.361,19.677,32.084a3.109,3.109,0,0,0,3.074,1.6c7.715-.021,15.431,0,23.146-.029a19.112,19.112,0,0,0,2.452-.334Zm48.632,59.159h57.336q21.27,0,42.535-.008c3.887-.008,7.795-.021,11.415-1.793,11.807-5.793,13.688-18.717,9.888-29.465-3.136-8.867-10.26-12.8-19.681-12.749-17.3.079-34.611.021-51.915.021H692.776q-23.772,0-47.54,0c-7.845-.013-13.725,3.437-17.721,10.08-2.9,4.821-3.04,10.218-2.486,15.577.9,8.687,5.468,14.793,13.925,17.312a36.058,36.058,0,0,0,10.08.988q49.308.1,98.62.038Zm48.47-59.2a18.762,18.762,0,0,0,2.644.425c7.711.021,15.423-.017,23.134,0a3.027,3.027,0,0,0,3.057-1.652c1.059-1.943,2.327-3.774,3.487-5.664q14.745-23.985,29.461-47.986c1.576-2.582,3.453-5.255,4.029-8.12,2.035-10.055-5.271-18.651-15.026-18.538-3.541.042-7.094.113-10.626-.071-2.215-.117-3.253.922-4.058,2.757-1.893,4.312-3.9,8.575-5.855,12.858q-6.569,14.357-13.141,28.718-5.28,11.523-10.581,23.03c-2.131,4.646-4.258,9.292-6.523,14.242Z" transform="translate(-355.021 0.002)" fill="#ffb5b2"/>
    <path id="Path_12329" data-name="Path 12329" d="M495.944,1031.354a79.89,79.89,0,0,1-4.045,22.713,77.829,77.829,0,0,1-29.486,39.691,83.067,83.067,0,0,1-8.85,5.426,7.344,7.344,0,0,1-9.68-2.665c-2.094-3.657-1.214-7.328,2.361-9.8,4.383-3.028,9.025-5.747,13.108-9.138a60.233,60.233,0,0,0,17.4-24.523,61.034,61.034,0,0,0,4.4-28.968c-2.16-21.624-12.487-38.356-30.979-49.854-13.633-8.474-28.6-11.027-44.241-8.308-18.513,3.216-32.935,13.12-43.182,28.864a60.618,60.618,0,0,0-10.013,37.176c1.23,21.8,11.01,38.957,29.164,51.147a61.652,61.652,0,0,0,34.14,10.485c4.9.071,8.028,2.932,8.112,7.123.079,4.091-2.953,7.59-7.04,7.415a114.677,114.677,0,0,1-16.136-1.6,73.226,73.226,0,0,1-24.11-9.371,78.969,78.969,0,0,1-28.1-28.339,78.466,78.466,0,0,1-5.226-68.192,78.1,78.1,0,0,1,29.273-36.617c16.09-10.956,34-15.477,53.224-13.07,26.066,3.261,45.942,16.54,59.363,39.211,6.861,11.594,10.193,24.231,10.522,41.2Z" transform="translate(-197.101 -553.987)" fill="#ffb5b2"/>
    <path id="Path_12330" data-name="Path 12330" d="M896.815,764.954V771a2.444,2.444,0,0,0,2.114,2.623c12.019,3.3,20.394,10.756,25.19,22.271a33.183,33.183,0,0,1,2.552,13.4,7.136,7.136,0,0,1-13.312,3.8,11.155,11.155,0,0,1-1.072-4.379c-.7-7.711-3.854-14.021-10.481-18.246a22.5,22.5,0,0,0-32.8,9.859,22.19,22.19,0,0,0,10.126,29.027,26.035,26.035,0,0,0,10.564,2.677c14.322.559,25.107,6.89,32.3,19.126,4.934,8.387,5.918,17.52,3.616,26.958-2.594,10.652-8.962,18.471-18.438,23.755a39.034,39.034,0,0,1-7.9,3.107c-1.8.538-2.506,1.389-2.477,3.22.063,3.891.092,7.786-.046,11.673a7.11,7.11,0,0,1-13.421,3.261,11.345,11.345,0,0,1-.926-4.617c-.129-3.541-.075-7.09-.021-10.631a2.547,2.547,0,0,0-2.173-2.8c-13.9-4.075-22.934-13-26.566-27.1a41.317,41.317,0,0,1-1.068-8.846,6.818,6.818,0,0,1,6.31-7,6.944,6.944,0,0,1,7.828,5.6c.342,1.622.4,3.307.638,4.955a22.329,22.329,0,0,0,22.083,19.08,22.655,22.655,0,0,0,22.775-21.036c.909-10.889-7.49-21.758-18.229-23.459-2.944-.467-5.956-.488-8.908-.922-14.547-2.144-24.652-10.055-30.124-23.7-6.652-16.582.238-35.67,15.348-44.741a42.529,42.529,0,0,1,9.5-4.091c2.044-.621,2.669-1.476,2.623-3.453-.083-3.891-.108-7.786.067-11.673a7.019,7.019,0,0,1,8.074-6.74,6.852,6.852,0,0,1,6.177,6.519c.133,2.148.025,4.308.025,6.46h.046Z" transform="translate(-496.916 -438.327)" fill="#ffb5b2"/>
    <path id="Path_12331" data-name="Path 12331" d="M500.725,1022.352c-.759,2.486,1.105,3.566,3.532,4.792,8.42,4.254,12.974,11.248,13.521,20.686.25,4.312-2.677,7.728-6.489,8.012-4.358.321-7.678-2.49-8.045-7.14a9.963,9.963,0,0,0-4.792-8.27,9.7,9.7,0,0,0-13.125,3.2c-2.79,4.713-1.284,10.918,3.416,13.341a12.559,12.559,0,0,0,4.93,1.343c9.208.517,16.353,4.429,21,12.5a23.9,23.9,0,0,1-11.419,33.852c-1.768.738-2.607,1.752-2.506,3.762.125,2.473.3,5.009-1.405,7.186a7.1,7.1,0,0,1-12.908-3.632,22.016,22.016,0,0,1-.1-3.954c.167-1.706-.671-2.565-2.077-3.17-8.483-3.649-13.3-10.151-14.81-19.18-.438-2.607-.3-5.146,1.385-7.353a7.327,7.327,0,0,1,8.02-2.511,7.438,7.438,0,0,1,5.009,6.769,9.588,9.588,0,0,0,4.921,8.383c4.892,2.857,10.2,1.255,13.337-3.92,2.411-3.975.847-10.047-3.541-12.491a15.065,15.065,0,0,0-5.918-1.526c-6.961-.6-12.883-3.215-17.474-8.554a23.893,23.893,0,0,1,8.47-37.681c1.918-.855,2.965-1.939,2.728-4.237-.288-2.786-.2-5.593,2.11-7.741a7.028,7.028,0,0,1,7.92-1.476,6.692,6.692,0,0,1,4.312,6.118c.046.763.008,1.526.008,2.886Z" transform="translate(-273.535 -590.365)" fill="#ffb5b2"/>
  </g>
</svg>
