<svg xmlns="http://www.w3.org/2000/svg" xmlns:xlink="http://www.w3.org/1999/xlink" width="909.619" height="759.354" viewBox="0 0 909.619 759.354">
  <defs>
    <linearGradient id="linear-gradient" x2="1" y2="1" gradientUnits="objectBoundingBox">
      <stop offset="0" stop-color="#ffbd69"/>
      <stop offset="1" stop-color="#ff6363"/>
    </linearGradient>
  </defs>
  <g id="deliveryboy" transform="translate(-67.001 -173.327)">
    <path id="Delivery_Time" data-name="Delivery Time" d="M50.358-39.24C50.358-15.7,29.757-9.7,24.743-9.7a2.022,2.022,0,0,1-1.09-.218c-.545-.545-.763-10.246-.763-21.146,0-13.952.327-29.866.763-30.3,0-.109.545-.109,1.417-.109C30.52-61.476,50.358-59.078,50.358-39.24ZM14.715,3.488c17.222,0,50.14-10.028,50.14-42.619,0-20.819-16.677-34.88-47.415-34.88-7.63,0-12.535.763-12.862,1.09-.109.109-.109.218-.109.436,0,2.18,3.379,10.573,4.905,12.862,0,13.189-.327,26.378-.327,43.055C9.047-6,9.265,2.4,9.81,2.943,10.246,3.379,13.189,3.488,14.715,3.488ZM104.2-34.662c0,7.3-9.592,13.843-14.17,13.952-.436,0-.436-.327-.436-1.526,0-8.611,5.341-15.587,11.227-15.587A3.076,3.076,0,0,1,104.2-34.662Zm-4.8,37.169C109.981,2.507,113.687,0,113.687,0c2.071-2.616,2.725-7.194,2.725-9.81,0-.654-.109-2.071-.327-2.071a.381.381,0,0,0-.218.109c-3.379,2.071-8.393,2.943-13.08,2.943-5.668,0-7.957-2.289-7.957-2.943,13.952-4.8,22.127-14.715,22.127-23.98,0-9.7-8.611-11.881-13.734-11.881-17.658,0-26.378,12.971-26.378,27.141C76.845-7.739,84.148,2.507,99.408,2.507Zm43.6-47.524c0-8.175.327-26.705.545-28.34,0-.218-1.744-.436-2.725-.436-3.924,0-10.246,2.4-10.246,3.924,0,1.2.436,3.924.436,14.933,0,17.331-.436,28.34-.436,39.458,0,5.341,0,9.7.109,11.445.654,6.758,2.943,9.592,3.379,9.592,4.578,0,12.1-4.578,12.1-5.886a17.582,17.582,0,0,1-3.161-8.72c-.218-1.744-.218-5.123-.218-9.265C142.79-28.667,143.008-36.842,143.008-45.017ZM174.836-57.77c0-4.578-2.834-7.3-6.758-7.3s-7.739,3.6-7.739,7.3c0,4.8,2.616,7.412,6.649,7.412C170.912-50.358,174.836-53.846,174.836-57.77Zm-4.142,13.625c-6.322,0-8.829,1.962-8.829,1.962-.436.872-.763,17.44-.763,28.667,0,4.469.109,8.066.218,9.483.654,6.758,2.834,9.592,3.27,9.592,4.578,0,12.1-4.578,12.1-5.886-1.308-1.962-2.4-4.142-2.943-8.72-.218-1.853-.327-6.213-.327-11.227,0-10.028.327-22.672.327-23.217C173.2-44.145,170.694-44.145,170.694-44.145Zm36.733,29.1c-.327.545-.436,0-.436,0C203.612-22.563,196.963-49.6,196.963-49.6c-7.957,0-11.554,2.834-11.554,3.161,0,7.957,13.843,42.946,13.843,48.178a14.82,14.82,0,0,0,5.014.654s9.047-.327,10.464-1.744S231.3-49.268,231.3-53.628c0,0-.654-1.09-6.649-1.09-2.507,0-6.649.763-6.758,1.635C217.346-47.306,210.152-19.947,207.427-15.042Zm61.04-19.62c0,7.3-9.592,13.843-14.17,13.952-.436,0-.436-.327-.436-1.526,0-8.611,5.341-15.587,11.227-15.587A3.076,3.076,0,0,1,268.467-34.662Zm-4.8,37.169C274.244,2.507,277.95,0,277.95,0c2.071-2.616,2.725-7.194,2.725-9.81,0-.654-.109-2.071-.327-2.071a.381.381,0,0,0-.218.109c-3.379,2.071-8.393,2.943-13.08,2.943-5.668,0-7.957-2.289-7.957-2.943,13.952-4.8,22.127-14.715,22.127-23.98,0-9.7-8.611-11.881-13.734-11.881-17.658,0-26.378,12.971-26.378,27.141C241.108-7.739,248.411,2.507,263.671,2.507Zm61.258-45.671a8.428,8.428,0,0,0-.872-4.142c-10.137,0-16.241,8.72-16.241,8.72-.218.218-.327.218-.436.218-.218,0-.218-2.289-.218-2.507,0-2.834.218-6.976.327-7.957,0-.327-1.308-.545-2.289-.545-3.924,0-8.393,1.526-9.919,3.052-.327.327-.436,2.943-.436,6.867,0,6.322.218,16.023.218,24.743,0,7.085-.109,13.625-.763,17.222,0,.327.436.327.872.327,2.834,0,9.374-.436,11.99-2.943.327-.327.327-7.194.327-13.407v-9.592A14.052,14.052,0,0,1,321.55-33.463a11.448,11.448,0,0,1,1.417.218S324.929-35.861,324.929-43.164ZM362.97-4.36c0,23.762-11.772,25.724-18.748,26.705a11.846,11.846,0,0,1-1.962.109c0,5.232,3.379,11.227,4.033,11.227,8.393,0,28.776-5.014,28.776-35.1,0-5.341-.109-17.767-.109-28.994,0-7.194.218-13.843.872-17.658,0-.327-.763-.327-1.635-.327-2.943,0-9.156.872-11.227,2.943-.436.436-.545,5.014-.545,10.028,0,6.322.218,13.189.218,13.189s-1.308,8.393-8.5,8.393c-5.886,0-7.085-8.284-7.085-18.748a128.914,128.914,0,0,1,1.2-16.677,10.626,10.626,0,0,0-3.488-.545c-4.687,0-8.829,1.744-8.829,2.289a66.622,66.622,0,0,0-1.2,12.644c0,18.639.327,34.444,13.952,34.444a16.351,16.351,0,0,0,13.516-7.412q.163-.327.327-.327c.218,0,.327.436.327.654C362.861-6.976,362.97-5.45,362.97-4.36ZM437.2-7.412a1.323,1.323,0,0,1-.545-.109c-.545-2.943-.981-16.241-.981-22.345a14.149,14.149,0,0,1,.109-3.052,11.667,11.667,0,0,1,2.725-.218c7.521,0,19.075,2.507,19.075,11.445C457.582-13.734,446.464-7.412,437.2-7.412Zm15.369-47.742c0,8.5-12.862,11.118-16.023,11.118-.436,0-.545,0-.654-.109,0-.327.545-18.094.654-18.2a6.433,6.433,0,0,1,2.18-.218C443.085-62.566,452.568-61.258,452.568-55.154ZM423.029,4.687a48.011,48.011,0,0,0,5.559.327c20.71,0,44.145-7.63,44.145-27.9,0-13.189-15.478-16.895-17.549-17.767,0-.109.218-.327.218-.327,2.18-.981,13.3-6.867,13.3-17.222,0-12.208-17.876-15.587-31.392-15.587-8.72,0-19.075.654-19.947,1.417a.477.477,0,0,0-.109.327c0,1.635,3.488,8.938,5.123,10.573a24.609,24.609,0,0,1,.218,4.578c0,8.72-.545,28.122-.545,41.638C422.048-9.7,422.593,4.142,423.029,4.687Zm84.584-1.853c15.151,0,23.326-12.535,23.326-25.506,0-15.369-11.336-19.075-12.426-19.184a29.466,29.466,0,0,0,.327-3.924,3.624,3.624,0,0,0-.218-1.526c-.654-.654-5.886-.872-5.886-.872-18.094,0-28.013,13.952-28.013,27.25C484.723-7.3,493.007,2.834,507.613,2.834ZM518.4-21.691c0,9.7-5.668,13.516-10.791,13.516-10.464,0-10.464-11.99-10.464-13.08,0-10.464,6.976-15.26,12.208-15.26a17.486,17.486,0,0,0-.327,3.161,3.787,3.787,0,0,0,.218,1.417h.872C512.409-31.937,518.4-31.065,518.4-21.691ZM572.25-4.36c0,23.762-11.772,25.724-18.748,26.705a11.847,11.847,0,0,1-1.962.109c0,5.232,3.379,11.227,4.033,11.227,8.393,0,28.776-5.014,28.776-35.1,0-5.341-.109-17.767-.109-28.994,0-7.194.218-13.843.872-17.658,0-.327-.763-.327-1.635-.327-2.943,0-9.156.872-11.227,2.943-.436.436-.545,5.014-.545,10.028,0,6.322.218,13.189.218,13.189s-1.308,8.393-8.5,8.393c-5.886,0-7.085-8.284-7.085-18.748a128.92,128.92,0,0,1,1.2-16.677,10.626,10.626,0,0,0-3.488-.545c-4.687,0-8.829,1.744-8.829,2.289a66.62,66.62,0,0,0-1.2,12.644c0,18.639.327,34.444,13.952,34.444a16.351,16.351,0,0,0,13.516-7.412q.164-.327.327-.327c.218,0,.327.436.327.654C572.141-6.976,572.25-5.45,572.25-4.36Z" transform="translate(227 899)" fill="url(#linear-gradient)"/>
    <g id="Group_5450" data-name="Group 5450" transform="translate(-0.381)">
      <path id="Path_5852" data-name="Path 5852" d="M61.4,59.179Q65.059,72.8,74.2,78.454t24.093,5.651a114.224,114.224,0,0,0,21.6-2.327,130.488,130.488,0,0,0,23.6-6.979,106.468,106.468,0,0,1,8.144,20.6,97.573,97.573,0,0,1,3.822,24.926A172.7,172.7,0,0,1,94.969,131.3q-23.929,0-41.044-6.645T26.008,106.2A74.034,74.034,0,0,1,10.056,78.125,117.379,117.379,0,0,1,4.909,42.564,116.017,116.017,0,0,1,10.221,7,81.676,81.676,0,0,1,26.175-21.913,75.224,75.224,0,0,1,52.757-41.355Q68.709-48.5,89.98-48.5q17.614,0,31.407,5.981a68.38,68.38,0,0,1,23.43,16.449A71.457,71.457,0,0,1,159.607-.811a96.87,96.87,0,0,1,5.147,32.07,140.666,140.666,0,0,1-.832,16.118q-.832,7.145-1.5,11.8ZM87.99-6.294A26.926,26.926,0,0,0,69.711.354Q62.067,7,60.738,20.957h53.175q-.665-11.63-7.15-19.441T87.99-6.294Zm198.4-12.3q13.958,5.651,25.092,11.465A75.273,75.273,0,0,1,330.6,6.835a55.669,55.669,0,0,1,12.3,19.608q4.32,11.465,4.32,27.752a78.741,78.741,0,0,1-6.149,31.736,65.924,65.924,0,0,1-18.113,24.257q-11.965,10.136-29.412,15.62t-40.047,5.484a177.953,177.953,0,0,1-36.391-3.323,227.808,227.808,0,0,1-34.061-10.3A188.453,188.453,0,0,1,187.7,92.911q3.323-13.127,7.972-26.753,30.578,13.291,53.175,13.291,16.954,0,26.421-5.147t9.481-17.785a19.525,19.525,0,0,0-2-9.136,20.123,20.123,0,0,0-5.317-6.481,33.492,33.492,0,0,0-7.477-4.487q-4.155-1.828-8.477-3.49l-18.611-6.979a119.765,119.765,0,0,1-21.769-10.3A69.711,69.711,0,0,1,204.313,1.513a59.439,59.439,0,0,1-10.8-18.778q-3.82-10.635-3.82-24.927,0-17.614,5.981-31.24a65.071,65.071,0,0,1,16.778-23.1,71.668,71.668,0,0,1,26.089-14.29,113.589,113.589,0,0,1,34.231-4.819,158.506,158.506,0,0,1,32.736,3.323,269.454,269.454,0,0,1,33.733,9.641,169.939,169.939,0,0,1-4.819,23.43,147.784,147.784,0,0,1-8.807,24.1q-8.641-3.656-20.273-7.644t-28.914-3.987a49.935,49.935,0,0,0-10.136,1,29.647,29.647,0,0,0-8.641,3.157A16.752,16.752,0,0,0,251.5-56.64a17.917,17.917,0,0,0-2.327,9.472q0,9.641,6.314,14.29a63.514,63.514,0,0,0,14.956,7.972ZM484.805,63.83H435.617v63.145q-8.641,1.329-15.62,1.993t-12.629.664q-5.651,0-12.629-.664t-15.288-1.993V-44.512a112.013,112.013,0,0,1,14.457-2.327q7.145-.664,13.792-.664,6.315,0,13.624.664a101.159,101.159,0,0,1,14.29,2.327V13.978H484.8V-44.514a112.019,112.019,0,0,1,14.457-2.327q7.145-.664,13.792-.664,6.314,0,13.624.664a101.169,101.169,0,0,1,14.29,2.327V126.975q-8.641,1.329-15.62,1.993t-12.629.66q-5.651,0-12.629-.664T484.8,126.971Zm85.079-21.6a118.8,118.8,0,0,1,5.484-37.054,78.784,78.784,0,0,1,16.286-28.747,71.887,71.887,0,0,1,26.752-18.447Q634.358-48.5,655.3-48.5q21.269,0,37.222,6.481a71.889,71.889,0,0,1,26.753,18.445A78.782,78.782,0,0,1,735.557,5.175a118.8,118.8,0,0,1,5.484,37.06,114.564,114.564,0,0,1-5.484,36.391,77.538,77.538,0,0,1-16.286,28.249,71.162,71.162,0,0,1-26.752,18.107Q676.566,131.3,655.3,131.3q-20.937,0-36.89-6.315a71.16,71.16,0,0,1-26.753-18.113,77.535,77.535,0,0,1-16.285-28.253,114.559,114.559,0,0,1-5.482-36.387Zm114.326,0q0-21.269-7.145-32.571T655.3-1.645q-14.623,0-21.6,11.3t-6.979,32.577q0,20.937,6.979,32.237t21.6,11.3q14.624,0,21.769-11.3T684.21,42.228Zm140.578,1.993a32.9,32.9,0,0,0,4.155.5q2.493.166,4.154.167,11.632,0,19.11-5.816T859.684,19.3q0-11.965-7.477-18.445t-18.442-6.48h-3.822A41.549,41.549,0,0,0,824.8-5.3ZM769.958-43.848q15.287-2.321,31.406-3.482t31.075-1.164a157.334,157.334,0,0,1,29.911,2.826,73.983,73.983,0,0,1,26.251,10.3,55.431,55.431,0,0,1,18.778,20.606q7.145,13.127,7.145,34.069,0,18.944-6.481,31.9a58.157,58.157,0,0,1-17.116,20.937A68.267,68.267,0,0,1,866.833,83.61a108.819,108.819,0,0,1-27.418,3.49q-5.651,0-9.641-.332a29.276,29.276,0,0,1-4.985-.665V126.98a134.994,134.994,0,0,1-15.453,2.161q-6.813.5-12.13.5-5.651,0-12.13-.5a137.213,137.213,0,0,1-15.116-2.164Z" transform="translate(62.479 621.733)" fill="url(#linear-gradient)"/>
      <path id="Path_6382" data-name="Path 6382" d="M887.684,392.076V670.514a8.339,8.339,0,0,1-8.339,8.339H836.014l-13.946,25.09V551.267h0v-115.9l-.037.025L742.79,487.051h0l-31.919-20.812-2.21-1.43L678.89,445.4l-15.456-10.077v166.7l47.432,28.413V522.85h0l31.912,20.8h0l31.853-20.767V678.853H600.9a8.342,8.342,0,0,1-8.339-8.339V392.076a8.339,8.339,0,0,1,8.339-8.339H879.341a8.336,8.336,0,0,1,8.343,8.339Z" transform="translate(-0.408 -210.41)" fill="url(#linear-gradient)"/>
    </g>
  </g>
</svg>
