<svg xmlns="http://www.w3.org/2000/svg" width="595.727" height="597.998" viewBox="0 0 595.727 597.998">
  <g id="_0" data-name="0" transform="translate(0 -0.002)">
    <g id="bouns">
      <path id="Path_12314" data-name="Path 12314" d="M13.01,598C2.91,593.34-.05,585.33,0,574.48.33,508.34.16,442.2.17,376.06c0-13.02,3.22-17.57,15.55-22.05q12.315-4.47,24.64-8.95c12.28-4.43,21.07-.51,25.49,11.62q37.335,102.33,74.54,204.72c4.25,11.7-.09,20.55-11.84,24.99-10.11,3.82-20.19,7.73-30.28,11.61Z" fill="#fd8564"/>
      <path id="Path_12315" data-name="Path 12315" d="M99.73,346.3c22.84-7.47,44.12-17.77,67.78-20.76,35.39-4.46,69.38.69,99.14,20.17,26.13,17.11,54.42,24.99,84.5,29.28a317.294,317.294,0,0,1,31.52,5.86c21.79,5.43,35.91,28.01,31.66,49.73-4.51,23.08-25.19,39.05-47.94,35.61-28.63-4.33-57.09-9.78-85.62-14.76q-16.95-2.955-33.88-5.96c-10.25-1.82-19.5,3.95-21.33,13.35-2.02,10.32,4.25,19.23,15.07,21.16q36.75,6.54,73.52,12.91c16.66,2.89,33.25,6.49,50.03,8.3,43.16,4.66,82.16-28.4,85.73-71.65.18-2.18,1.84-5.27,3.66-6.14,26.49-12.61,52.96-25.3,79.78-37.19a44.041,44.041,0,0,1,62.32,42.4c-.86,17.62-10.05,30.21-25.6,38.33q-55.035,28.77-110.03,57.63c-23.59,12.36-47.57,24.04-70.64,37.3-24.37,14.01-49.47,18.51-77.32,14-43.76-7.08-87.78-12.52-131.71-18.48-3.16-.43-4.72-1.47-5.8-4.44Q137.7,451.31,100.69,349.72c-.32-.89-.51-1.83-.95-3.44Z" fill="#fd8564"/>
      <path id="Path_12316" data-name="Path 12316" d="M442.41,389.2c-15.64-31.94-43.31-44.24-76.78-48.15,2.08-.82,4.17-1.61,6.24-2.47,27.23-11.3,39.59-40.88,27.09-65.03-6.4-12.36-16.92-20.14-29.4-25.43-11.62-4.93-23.38-9.54-35.13-14.16-3.44-1.36-6.54-2.84-6.59-7.12-.06-4.63,2.49-7.7,6.5-9.53a28.146,28.146,0,0,1,22.17-.48,79.473,79.473,0,0,1,14.47,7.37c9.36,5.92,19.54,4.72,25.37-3.45,5.87-8.23,4.03-18.69-4.95-25.03-19.16-13.52-40.1-19.79-63.37-13.3-17.33,4.84-29.47,15.72-33.93,33.58-3.93,15.73-.07,29.78,11.73,41.1a40.194,40.194,0,0,0,11.6,7.59c11.75,5.12,23.8,9.55,35.6,14.56a49.92,49.92,0,0,1,11.55,6.63c5.54,4.41,5.67,9.9.92,15.19-4.42,4.93-10.23,7.06-16.66,7.19-12.87.25-23.97-4.08-33.08-13.35-5.27-5.37-11.68-6.85-18.75-4.39-6.94,2.42-10.77,7.74-11.31,14.89-.27,3.51.98,7.13,1.62,11.17-35.09-20.89-72.88-29.83-113.87-26.98a199.248,199.248,0,0,1,10.12-49.87c14.88-44.29,41.05-80.43,78.73-108.1a16.164,16.164,0,0,1,8.93-3.01q73.575-.27,147.14,0a15.867,15.867,0,0,1,8.92,3.05q87.84,67.035,89.64,177.62.345,20.73-.1,41.45c-.04,1.96-1.64,4.87-3.32,5.67-22.78,10.91-45.7,21.54-68.6,32.21a15.965,15.965,0,0,1-2.48.57Z" fill="#fd8564"/>
      <path id="Path_12317" data-name="Path 12317" d="M285.16,93.03c-8.74-23.4-17.9-46.94-26.26-70.75C254.9,10.9,263.86.11,276.51.06,302.2-.05,327.89.03,353.59.03c19.46,0,38.93-.05,58.39.02,14.85.05,22.78,11.37,17.61,25.32-7.9,21.32-16,42.56-23.94,63.85-.92,2.48-1.61,4.34-5.03,4.33-37.95-.15-75.91-.12-113.86-.15a8.82,8.82,0,0,1-1.59-.36Z" fill="#fd8564"/>
    </g>
  </g>
</svg>
