<svg xmlns="http://www.w3.org/2000/svg" width="383.268" height="383.191" viewBox="0 0 383.268 383.191">
  <g id="_6" data-name="6" transform="translate(-0.02)">
    <g id="wallet">
      <path id="Path_12346" data-name="Path 12346" d="M184.89,0h7.49c12.88,2.77,19.9,11.23,23.35,23.5,1.58,5.62,4.04,10.98,5.82,16.55.82,2.57,2.06,3.38,4.77,3.37,22.2-.12,44.39-.08,66.59-.06,17.37.02,28.2,10.89,28.22,28.25V96.95a11.376,11.376,0,0,0,1.35.36c23.35,2.73,38.29,19.42,38.32,42.84q.03,19.635,0,39.28v3.8a12.624,12.624,0,0,0,1.48.62c13.57,3.58,20.96,13.11,20.98,27.15.02,19.33.06,38.66-.02,57.99-.05,12.7-7.99,22.74-20.24,25.89-.69.18-1.36.42-1.92.59a5.147,5.147,0,0,0-.23.96c-.02,14.59.05,29.18-.09,43.77a50.425,50.425,0,0,1-1.13,11.11c-4.51,19.03-20.67,31.83-40.49,31.84q-138.795.105-277.59.03c-.62,0-1.25-.01-1.87-.05-14.71-1-26.31-7.49-33.73-20.28-2.75-4.73-4-10.33-5.93-15.53V133.24c.23-.7.53-1.38.69-2.1,3.65-17.09,13.97-27.93,30.72-32.7,2.22-.63,4.54-.91,7.07-1.4-1.55-4.27-2.99-8.23-4.44-12.2-5.94-16.3.58-30.3,16.85-36.21Q117.885,24.33,184.89,0ZM338.34,183.33c0-15.04.03-29.5,0-43.96-.03-11.8-7.88-19.65-19.77-19.65q-138.09-.03-276.19,0c-12.12,0-19.9,7.81-19.9,19.88q-.03,100.485,0,200.97c0,12.29,7.83,20.15,20.08,20.16q137.91.015,275.82,0c12.03,0,19.93-7.91,19.96-19.9.04-13.97.01-27.94,0-41.92,0-1.06-.14-2.12-.22-3.29-11.35,0-22.33.05-33.3-.02a126.142,126.142,0,0,1-14.56-.57,55.958,55.958,0,0,1-8.17-109.5,68.953,68.953,0,0,1,16.6-2.09c13.06-.3,26.14-.09,39.67-.09ZM198.81,43.15c-2.04-5.75-3.95-11.26-5.96-16.72-1.44-3.92-2.85-4.55-6.87-3.08Q122.1,46.57,58.23,69.85c-4.11,1.5-4.67,2.85-3.12,7.15,2.03,5.62,4.3,11.16,6.08,16.86.88,2.82,2.29,3.47,5.07,3.46,32.43-.1,64.86-.06,97.28-.06h4.14c0-9.53-.06-18.5.01-27.47.11-13.18,8.98-23.81,21.84-26.06a82.484,82.484,0,0,1,9.29-.58ZM325.7,272.59v.57c9.98,0,19.95.03,29.93-.01,3.9-.02,5.14-1.26,5.14-5.16.03-19.08-.01-38.16.03-57.24,0-3.45-1.5-4.98-4.97-4.97-19.95.06-39.91-.13-59.86.12-17.03.21-31.38,14.26-32.43,31.21-1.08,17.44,10.98,33.39,28.17,35.26,11.2,1.22,22.64.23,33.98.23ZM298.64,97.18c0-9.39.07-18.45-.04-27.52-.04-3.01-2.13-3.86-4.87-3.86q-49.35.045-98.7,0c-3.48,0-4.98,1.55-4.94,4.99.07,6.23.02,12.46.02,18.69v7.71H298.63Z" fill="#ffb5b2"/>
      <path id="Path_12347" data-name="Path 12347" d="M308.38,239.29a11.216,11.216,0,1,1-22.43.12,11.216,11.216,0,0,1,22.43-.12Z" fill="#ffb5b2"/>
    </g>
  </g>
</svg>
