<svg xmlns="http://www.w3.org/2000/svg" xmlns:xlink="http://www.w3.org/1999/xlink" width="383.268" height="383.234" viewBox="0 0 383.268 383.234">
  <defs>
    <linearGradient id="linear-gradient" x1="0.5" x2="0.5" y2="1" gradientUnits="objectBoundingBox">
      <stop offset="0" stop-color="#ffb368"/>
      <stop offset="1" stop-color="#fc6861"/>
    </linearGradient>
  </defs>
  <g id="_3" data-name="3" transform="translate(-0.002)">
    <g id="fill_wallet" data-name="fill wallet">
      <path id="Path_12332" data-name="Path 12332" d="M191.63,0c10.53,2.84,12.16,11.99,14.99,20.87-4.84,0-9.32-.11-13.78.02a37.228,37.228,0,0,0-36.35,36.8c-.15,9.47-.03,18.95-.03,29h-4.15c-32.56,0-65.11-.05-97.67.08-3.09.01-4.38-.99-5.26-3.8-1.53-4.87-3.49-9.59-5.19-14.41-3.22-9.15.49-17.09,9.59-20.4Q119.075,24.43,184.37.7a9.263,9.263,0,0,0,1.27-.7Z" fill="url(#linear-gradient)"/>
      <path id="Path_12333" data-name="Path 12333" d="M383.26,271.72c-2.78,6.41-7.69,8.55-14.58,8.47-24.19-.28-48.38.09-72.56-.23-18.42-.24-32.83-15.62-32.61-34.03a33.5,33.5,0,0,1,33.27-33.11c24.93-.31,49.87-.11,74.81-.07,6.04,0,9.57,3.52,11.68,8.83v50.15Zm-86.2-14.13a11.172,11.172,0,0,0,11.34-10.94,11.221,11.221,0,1,0-22.44-.23A11.173,11.173,0,0,0,297.06,257.59Z" fill="url(#linear-gradient)"/>
      <path id="Path_12334" data-name="Path 12334" d="M349.57,190.26c-17.64,0-34.72-.04-51.8,0-27.29.08-49.79,18.28-55.58,44.88-7.26,33.38,18.49,66.47,52.64,67.26,16.71.39,33.43.11,50.14.13h4.38c.08,1.45.2,2.65.21,3.84q.015,22.635,0,45.28c-.03,18.93-12.75,31.58-31.77,31.58q-142.935.015-285.88,0c-19.25,0-31.9-12.62-31.9-31.82Q0,246.08.01,140.74c0-18.85,12.54-31.58,31.33-31.59q143.5-.06,287.01,0c18.6,0,31.19,12.74,31.22,31.31.03,15.34,0,30.68,0,46.03v3.75Z" fill="url(#linear-gradient)"/>
      <path id="Path_12335" data-name="Path 12335" d="M309.87,86.52H179.22a8.417,8.417,0,0,1-.29-1.51c-.02-8.98-.12-17.96,0-26.94.11-8.22,6.25-14.68,14.37-14.71q51.075-.18,102.15,0a14.333,14.333,0,0,1,14.34,13.95c.26,9.59.06,19.2.06,29.21Z" fill="url(#linear-gradient)"/>
    </g>
  </g>
</svg>
