<svg width="24" height="24" viewBox="0 0 24 24" fill="none" xmlns="http://www.w3.org/2000/svg">
<g clip-path="url(#clip0_136_786)">
<path d="M15.34 10.64V9.89C15.34 8.54 14.23 7.4 12.75 7.11V5.74H11.25V7.11C9.77 7.4 8.66 8.54 8.66 9.89C8.66 10.88 9.06 11.62 9.83 12.1C10.43 12.46 11.16 12.6 11.86 12.74C13.42 13.04 13.84 13.24 13.84 14.11C13.84 14.84 13 15.46 12 15.46C11 15.46 10.16 14.84 10.16 14.11V13.36H8.66V14.11C8.66 15.46 9.77 16.6 11.25 16.89V18.26H12.75V16.89C14.23 16.6 15.34 15.46 15.34 14.11C15.34 13.12 14.94 12.37 14.17 11.9C13.57 11.54 12.84 11.4 12.14 11.26C10.58 10.96 10.16 10.76 10.16 9.89C10.16 9.16 11 8.54 12 8.54C13 8.54 13.84 9.16 13.84 9.89V10.64H15.34ZM15.34 10.64V9.89C15.34 8.54 14.23 7.4 12.75 7.11V5.74H11.25V7.11C9.77 7.4 8.66 8.54 8.66 9.89C8.66 10.88 9.06 11.62 9.83 12.1C10.43 12.46 11.16 12.6 11.86 12.74C13.42 13.04 13.84 13.24 13.84 14.11C13.84 14.84 13 15.46 12 15.46C11 15.46 10.16 14.84 10.16 14.11V13.36H8.66V14.11C8.66 15.46 9.77 16.6 11.25 16.89V18.26H12.75V16.89C14.23 16.6 15.34 15.46 15.34 14.11C15.34 13.12 14.94 12.37 14.17 11.9C13.57 11.54 12.84 11.4 12.14 11.26C10.58 10.96 10.16 10.76 10.16 9.89C10.16 9.16 11 8.54 12 8.54C13 8.54 13.84 9.16 13.84 9.89V10.64H15.34ZM15.34 10.64V9.89C15.34 8.54 14.23 7.4 12.75 7.11V5.74H11.25V7.11C9.77 7.4 8.66 8.54 8.66 9.89C8.66 10.88 9.06 11.62 9.83 12.1C10.43 12.46 11.16 12.6 11.86 12.74C13.42 13.04 13.84 13.24 13.84 14.11C13.84 14.84 13 15.46 12 15.46C11 15.46 10.16 14.84 10.16 14.11V13.36H8.66V14.11C8.66 15.46 9.77 16.6 11.25 16.89V18.26H12.75V16.89C14.23 16.6 15.34 15.46 15.34 14.11C15.34 13.12 14.94 12.37 14.17 11.9C13.57 11.54 12.84 11.4 12.14 11.26C10.58 10.96 10.16 10.76 10.16 9.89C10.16 9.16 11 8.54 12 8.54C13 8.54 13.84 9.16 13.84 9.89V10.64H15.34ZM15.34 10.64V9.89C15.34 8.54 14.23 7.4 12.75 7.11V5.74H11.25V7.11C9.77 7.4 8.66 8.54 8.66 9.89C8.66 10.88 9.06 11.62 9.83 12.1C10.43 12.46 11.16 12.6 11.86 12.74C13.42 13.04 13.84 13.24 13.84 14.11C13.84 14.84 13 15.46 12 15.46C11 15.46 10.16 14.84 10.16 14.11V13.36H8.66V14.11C8.66 15.46 9.77 16.6 11.25 16.89V18.26H12.75V16.89C14.23 16.6 15.34 15.46 15.34 14.11C15.34 13.12 14.94 12.37 14.17 11.9C13.57 11.54 12.84 11.4 12.14 11.26C10.58 10.96 10.16 10.76 10.16 9.89C10.16 9.16 11 8.54 12 8.54C13 8.54 13.84 9.16 13.84 9.89V10.64H15.34ZM12 0C5.38 0 0 5.38 0 12C0 18.62 5.38 24 12 24C18.62 24 24 18.62 24 12C24 5.38 18.62 0 12 0ZM12 22.5C6.21 22.5 1.5 17.79 1.5 12C1.5 6.21 6.21 1.5 12 1.5C17.79 1.5 22.5 6.21 22.5 12C22.5 17.79 17.79 22.5 12 22.5ZM12.75 7.11V5.74H11.25V7.11C9.77 7.4 8.66 8.54 8.66 9.89C8.66 10.88 9.06 11.62 9.83 12.1C10.43 12.46 11.16 12.6 11.86 12.74C13.42 13.04 13.84 13.24 13.84 14.11C13.84 14.84 13 15.46 12 15.46C11 15.46 10.16 14.84 10.16 14.11V13.36H8.66V14.11C8.66 15.46 9.77 16.6 11.25 16.89V18.26H12.75V16.89C14.23 16.6 15.34 15.46 15.34 14.11C15.34 13.12 14.94 12.37 14.17 11.9C13.57 11.54 12.84 11.4 12.14 11.26C10.58 10.96 10.16 10.76 10.16 9.89C10.16 9.16 11 8.54 12 8.54C13 8.54 13.84 9.16 13.84 9.89V10.64H15.34V9.89C15.34 8.54 14.23 7.4 12.75 7.11Z" fill="#FF7C65"/>
</g>
<defs>
<clipPath id="clip0_136_786">
<rect width="24" height="24" fill="white"/>
</clipPath>
</defs>
</svg>
