<svg width="18" height="18" viewBox="0 0 18 18" fill="none" xmlns="http://www.w3.org/2000/svg">
<g clip-path="url(#clip0_115_753)">
<path fill-rule="evenodd" clip-rule="evenodd" d="M9.00007 9.5267C7.55588 9.5267 6.38379 8.34712 6.38379 6.89372C6.38379 5.44032 7.55588 4.26074 9.00007 4.26074C10.4443 4.26074 11.6163 5.44032 11.6163 6.89372C11.6163 8.34712 10.4443 9.5267 9.00007 9.5267ZM9.00007 5.31393C8.13495 5.31393 7.4303 6.02308 7.4303 6.89372C7.4303 7.76436 8.13495 8.47351 9.00007 8.47351C9.86518 8.47351 10.5698 7.76436 10.5698 6.89372C10.5698 6.02308 9.86518 5.31393 9.00007 5.31393Z" fill="black" fill-opacity="0.5"/>
<path fill-rule="evenodd" clip-rule="evenodd" d="M8.99991 0.75C5.63712 0.75 2.89526 3.50936 2.89526 6.89362C2.89526 7.70106 3.21619 8.63489 3.8441 9.68106C4.3255 10.4815 4.98829 11.3521 5.8255 12.2719C6.41154 12.9249 7.06736 13.5849 7.77201 14.2379C7.93247 14.3853 8.09991 14.5257 8.26038 14.6732C8.40689 14.8066 8.56038 14.947 8.72782 15.0523C8.83945 15.1226 8.97201 15.1717 9.09759 15.1366C9.18131 15.1155 9.25108 15.0664 9.31387 15.0172C9.6348 14.7785 9.9348 14.5117 10.2278 14.2379C10.9325 13.5779 11.5883 12.9179 12.1743 12.2719C13.0115 11.3521 13.6743 10.4815 14.1557 9.68106C14.7836 8.63489 15.1046 7.70106 15.1046 6.89362C15.1046 3.50936 12.3697 0.75 8.99991 0.75ZM13.2627 9.1334C12.8162 9.87766 12.1883 10.6921 11.4069 11.5628C10.6953 12.3421 9.99061 13.0232 9.51619 13.4585C9.36968 13.5989 8.99991 13.9219 8.99991 13.9219C8.99991 13.9219 8.63015 13.5989 8.48364 13.4585C7.79294 12.8266 7.16503 12.1877 6.59294 11.5628C5.81154 10.6921 5.18364 9.87766 4.73712 9.1334C4.20689 8.25574 3.94178 7.50447 3.94178 6.89362C3.94178 4.08511 6.20922 1.80319 8.99991 1.80319C11.7906 1.80319 14.0581 4.08511 14.0581 6.89362C14.0581 7.50447 13.7929 8.25574 13.2627 9.1334Z" fill="black" fill-opacity="0.5"/>
<path d="M9 17.2501C7.08837 17.2501 5.2814 17.0254 3.91395 16.6111C3.21628 16.4005 2.66512 16.1477 2.26744 15.8669C1.75814 15.5018 1.5 15.0805 1.5 14.6171C1.5 14.0343 1.92558 13.606 2.28837 13.3533C2.69302 13.0654 3.26512 12.8126 3.96977 12.602C4.0186 12.588 4.06744 12.5809 4.11628 12.5809C4.34651 12.5809 4.55581 12.7354 4.6186 12.9601C4.70233 13.2409 4.54186 13.5358 4.26279 13.6131C3.66977 13.7886 3.19535 13.9992 2.8814 14.2169C2.67209 14.3643 2.59535 14.4767 2.56047 14.5399L2.52558 14.6171L2.56047 14.6943C2.58837 14.7575 2.67209 14.8699 2.86744 15.0103C3.16744 15.2209 3.63488 15.4316 4.21395 15.6071C5.48372 15.9933 7.17907 16.2039 9 16.2039C10.8209 16.2039 12.5163 15.9933 13.786 15.6071C14.3651 15.4316 14.8256 15.228 15.1256 15.0103C15.3209 14.8699 15.4047 14.7575 15.4326 14.6943L15.4674 14.6241L15.4326 14.5539C15.4047 14.4837 15.3209 14.3784 15.1116 14.2309C14.7977 14.0133 14.3233 13.8026 13.7302 13.6271C13.4512 13.5428 13.2977 13.255 13.3744 12.9741C13.4372 12.7494 13.6465 12.595 13.8767 12.595C13.9256 12.595 13.9744 12.602 14.0233 12.616C14.7349 12.8267 15.3 13.0794 15.7047 13.3673C16.2279 13.7324 16.493 14.1607 16.493 14.6311C16.493 15.1016 16.2349 15.5158 15.7256 15.8809C15.3279 16.1618 14.7698 16.4145 14.0791 16.6252C12.7116 17.0394 10.9116 17.2641 8.99302 17.2641L9 17.2501Z" fill="black" fill-opacity="0.5"/>
</g>
<defs>
<clipPath id="clip0_115_753">
<rect width="15" height="16.5" fill="white" transform="translate(1.5 0.75)"/>
</clipPath>
</defs>
</svg>
