<svg width="18" height="18" viewBox="0 0 18 18" fill="none" xmlns="http://www.w3.org/2000/svg">
<g clip-path="url(#clip0_115_732)">
<path d="M2.08446 15C1.34773 15 0.75 14.4156 0.75 13.6954V4.30464C0.75 3.9513 0.889006 3.62514 1.14617 3.38052C1.39638 3.1359 1.72999 3 2.08446 3H15.9155C16.27 3 16.6036 3.1359 16.8538 3.38052C17.111 3.62514 17.25 3.9581 17.25 4.30464V13.6954C17.25 14.4156 16.6523 15 15.9155 15H2.08446ZM1.79254 13.6954C1.79254 13.8516 1.9246 13.9807 2.08446 13.9807H15.9155C16.0754 13.9807 16.2075 13.8516 16.2075 13.6954V4.71914L9.36142 11.2763C9.26411 11.3715 9.13206 11.419 9 11.419C8.86794 11.419 8.73589 11.3647 8.63859 11.2763L1.79254 4.71914V13.6954ZM9 10.2027L15.4568 4.01925H2.54318L9 10.2027Z" fill="black" fill-opacity="0.5"/>
</g>
<defs>
<clipPath id="clip0_115_732">
<rect width="16.5" height="12" fill="white" transform="translate(0.75 3)"/>
</clipPath>
</defs>
</svg>
