<svg width="18" height="18" viewBox="0 0 18 18" fill="none" xmlns="http://www.w3.org/2000/svg">
<path d="M11.7601 17.0624C11.0551 17.0624 10.3726 16.9124 9.72765 16.6199C6.02265 14.9399 3.06015 11.9774 1.38015 8.27243C0.67515 6.71993 0.81765 4.94243 1.76265 3.51743L2.75265 2.02493C3.20265 1.34243 3.96765 0.929932 4.78515 0.929932C5.26515 0.929932 5.73015 1.07243 6.12765 1.33493C6.26265 1.42493 6.39015 1.52993 6.50265 1.64243L7.50015 2.63993C8.43015 3.57743 8.43765 5.11493 7.52265 6.06743L6.63765 6.97493C6.97515 9.27743 8.72265 11.0249 10.9726 11.3774L11.9326 10.4774C12.3901 10.0349 12.9976 9.78743 13.6351 9.78743C14.2726 9.78743 14.8951 10.0424 15.3601 10.4999L16.3576 11.4974C17.3101 12.4499 17.3101 13.9949 16.3576 14.9399C16.2451 15.0524 16.1176 15.1574 15.9826 15.2474L14.4901 16.2299C13.6801 16.7699 12.7426 17.0549 11.7676 17.0549L11.7601 17.0624ZM4.78515 2.06243C4.74015 2.06243 4.69515 2.06243 4.65765 2.06243C4.26765 2.09993 3.91515 2.30993 3.69765 2.63993L2.70765 4.13243C1.97265 5.22743 1.86765 6.59993 2.40765 7.79993C3.96765 11.2574 6.73515 14.0174 10.1851 15.5849C10.6801 15.8099 11.2051 15.9224 11.7526 15.9224C12.5026 15.9224 13.2301 15.7049 13.8526 15.2849L15.3451 14.3024C15.6376 14.1074 15.8326 13.8149 15.9076 13.4699C15.9751 13.1249 15.9077 12.7799 15.7127 12.4874C15.6677 12.4124 15.6076 12.3449 15.5476 12.2849L14.5501 11.2874C14.3026 11.0399 13.9726 10.9049 13.6276 10.9049C13.2826 10.9049 12.9601 11.0399 12.7126 11.2799L11.5876 12.3749C11.4826 12.4799 11.3401 12.5324 11.1901 12.5324C8.14515 12.2249 5.76015 9.83243 5.45265 6.84743C5.43765 6.68243 5.49015 6.51743 5.61015 6.39743L6.70515 5.27243C7.20015 4.76243 7.19265 3.93743 6.69765 3.43493L5.70015 2.44493C5.45265 2.19743 5.12265 2.06243 4.77765 2.06243H4.78515Z" fill="black" fill-opacity="0.5"/>
</svg>
