<svg width="18" height="18" viewBox="0 0 18 18" fill="none" xmlns="http://www.w3.org/2000/svg">
<g clip-path="url(#clip0_115_737)">
<g clip-path="url(#clip1_115_737)">
<path d="M3.75916 17.25C2.1034 17.25 0.75 15.9525 0.75 14.3497V9C0.75 7.40412 2.0962 6.09966 3.75916 6.09966H4.14791V5.42662C4.14071 2.8524 6.32199 0.75 9 0.75C11.678 0.75 13.8593 2.8524 13.8593 5.43356V6.1066H14.248C15.9038 6.1066 17.25 7.40412 17.25 9.00694V14.3566C17.25 15.9525 15.9038 17.2569 14.248 17.2569H3.75916V17.25ZM3.75916 7.14045C2.69372 7.14045 1.82984 7.97309 1.82984 9V14.3497C1.82984 15.3766 2.69372 16.2092 3.75916 16.2092H14.248C15.3135 16.2092 16.1774 15.3766 16.1774 14.3497V9C16.1774 7.97309 15.3135 7.14045 14.248 7.14045H3.75916ZM9 1.78385C6.9123 1.78385 5.22055 3.42136 5.22055 5.42662V6.09966H12.7866V5.42662C12.7866 3.41442 11.0877 1.78385 9.0072 1.78385H9Z" fill="black" fill-opacity="0.5"/>
<path d="M9.00011 12.4901C8.53218 12.4901 8.15063 12.1223 8.15063 11.6783C8.15063 11.2342 8.53218 10.8595 9.00011 10.8595C9.46804 10.8595 9.84959 11.2272 9.84959 11.6783C9.84959 12.1293 9.46804 12.4901 9.00011 12.4901Z" fill="black" fill-opacity="0.5"/>
<path d="M12.7003 12.4901C12.2324 12.4901 11.8508 12.1223 11.8508 11.6783C11.8508 11.2342 12.2324 10.8595 12.7003 10.8595C13.1682 10.8595 13.5426 11.2272 13.5426 11.6783C13.5426 12.1293 13.161 12.4901 12.7003 12.4901Z" fill="black" fill-opacity="0.5"/>
<path d="M5.29967 12.4901C4.83174 12.4901 4.4502 12.1223 4.4502 11.6783C4.4502 11.2342 4.83174 10.8595 5.29967 10.8595C5.7676 10.8595 6.14915 11.2272 6.14915 11.6783C6.14915 12.1293 5.7676 12.4901 5.29967 12.4901Z" fill="black" fill-opacity="0.5"/>
</g>
</g>
<defs>
<clipPath id="clip0_115_737">
<rect width="18" height="18" fill="white"/>
</clipPath>
<clipPath id="clip1_115_737">
<rect width="16.5" height="16.5" fill="white" transform="translate(0.75 0.75)"/>
</clipPath>
</defs>
</svg>
