<svg width="18" height="18" viewBox="0 0 18 18" fill="none" xmlns="http://www.w3.org/2000/svg">
<path fill-rule="evenodd" clip-rule="evenodd" d="M8.99989 8.88743C6.83989 8.88743 5.07739 7.13243 5.07739 4.96493C5.07739 2.79743 6.83989 1.04993 8.99989 1.04993C11.1599 1.04993 12.9149 2.80493 12.9149 4.97243C12.9149 7.13993 11.1599 8.89493 8.99989 8.89493V8.88743ZM8.99989 2.16743C7.45489 2.16743 6.20239 3.41993 6.20239 4.96493C6.20239 6.50993 7.45489 7.76243 8.99989 7.76243C10.5449 7.76243 11.7974 6.50993 11.7974 4.96493C11.7974 3.41993 10.5449 2.16743 8.99989 2.16743Z" fill="black" fill-opacity="0.5"/>
<path fill-rule="evenodd" clip-rule="evenodd" d="M1.6123 16.95C1.3048 16.95 1.0498 16.7025 1.0498 16.3875V14.37C1.0498 11.835 3.1123 9.78003 5.6398 9.78003H12.3598C14.8948 9.78003 16.9498 11.8425 16.9498 14.37V16.3875C16.9498 16.695 16.7023 16.95 16.3873 16.95H1.6123ZM5.6398 10.905C3.7273 10.905 2.1673 12.465 2.1673 14.3775V15.8325H15.8323V14.3775C15.8323 12.465 14.2723 10.905 12.3598 10.905H5.6398Z" fill="black" fill-opacity="0.5"/>
</svg>
